<svg version="1.1" id="Layer_1" xmlns="http://www.w3.org/2000/svg" xmlns:xlink="http://www.w3.org/1999/xlink" x="0px" y="0px"
	 width="100%" viewBox="0 0 1024 1024" enable-background="new 0 0 1024 1024" xml:space="preserve">
<path fill="#000000" opacity="1.000000" stroke="none" 
	d="
M559.769775,534.103699 
	C556.829712,527.718872 554.117554,521.674194 552.332336,515.204285 
	C551.255432,511.301361 552.581360,510.101746 556.164368,509.683563 
	C582.276306,506.635529 608.075806,502.065796 633.400391,494.789001 
	C664.091492,485.970184 691.916199,472.098846 715.928101,450.753784 
	C733.313599,435.299164 745.004517,416.470337 749.934570,393.856384 
	C753.968872,375.351624 754.555115,356.677643 748.588989,338.246429 
	C747.122986,333.717438 744.783203,331.137268 739.908875,329.855011 
	C714.003540,323.040161 688.490601,314.606049 662.051758,309.997589 
	C629.615967,304.343811 597.214172,298.944427 564.088989,297.817047 
	C535.941345,296.859070 507.796844,295.697571 479.679321,296.525909 
	C451.930511,297.343414 424.121613,298.549011 396.647400,303.271820 
	C383.212677,305.581238 369.589722,307.114471 356.378632,310.337891 
	C330.999695,316.530182 305.599762,322.721100 280.587463,330.344604 
	C277.633972,331.244781 275.678406,332.719330 274.727356,335.781067 
	C264.675201,368.142792 265.608734,399.386414 285.891663,427.798431 
	C297.576538,444.166412 312.310211,457.753998 329.742981,468.133545 
	C357.490204,484.654327 387.475037,495.106140 418.985901,501.788391 
	C434.784302,505.138672 450.759064,507.069733 466.686127,509.417786 
	C470.758484,510.018127 471.853943,511.641602 470.750092,515.368958 
	C469.652283,519.075928 470.735687,522.666504 471.798615,526.150208 
	C472.704163,529.118225 472.357361,530.609741 468.948029,531.539307 
	C463.143951,533.121765 457.783936,535.858521 453.061340,539.712585 
	C447.786163,544.017700 441.820892,546.415161 434.994232,547.461060 
	C417.818542,550.092285 403.517578,566.898254 402.191345,584.360413 
	C400.670593,604.384644 410.211456,618.412109 425.446320,629.591125 
	C435.907318,637.267212 448.205841,642.246521 457.737152,651.290527 
	C467.087891,660.163147 478.871460,665.092834 489.830688,671.354980 
	C493.165588,673.260437 496.310242,675.279480 498.195099,677.785950 
	C463.273163,704.856079 431.439178,734.643616 403.277069,768.874939 
	C407.539215,771.498718 411.345978,769.988403 414.829529,770.675354 
	C428.100739,773.292542 436.988647,767.299194 445.723907,757.738708 
	C460.762970,741.278870 477.077118,725.975220 493.034790,710.369019 
	C497.904266,705.606812 503.249481,701.305237 508.586121,697.055481 
	C512.048340,694.298401 513.724609,691.422058 510.904266,687.227356 
	C514.983643,687.303345 515.700317,687.796631 515.983826,691.444153 
	C516.267639,695.094482 516.259827,698.769470 516.320923,702.434631 
	C516.440002,709.577332 519.151062,715.218384 525.228882,719.324707 
	C531.326050,723.444092 537.589478,727.205627 544.388977,730.016174 
	C573.311462,741.971191 602.620667,752.124390 634.696167,749.746887 
	C639.393616,749.398682 643.896729,748.307556 648.423401,747.228943 
	C651.265442,746.551758 653.987610,746.205872 656.427612,748.261719 
	C658.707642,744.690308 660.747803,743.580933 666.259094,742.870544 
	C666.370605,743.159607 666.651428,743.511597 666.572021,743.736084 
	C663.757568,751.690552 663.920471,751.323242 671.560547,754.828918 
	C693.196777,764.756714 715.046387,774.267151 735.916016,785.773132 
	C738.596313,787.250793 740.009399,786.629517 741.978760,785.024475 
	C763.300781,767.646851 781.918884,747.789185 797.362793,724.991150 
	C817.953796,694.595093 834.922852,662.393677 843.989868,626.634888 
	C851.043518,598.816223 853.666748,570.378601 854.109497,541.642456 
	C854.484375,517.316895 854.765930,492.995453 854.542175,468.673309 
	C854.494324,463.478394 856.555786,461.131866 861.221924,459.950531 
	C866.985229,458.491516 872.672791,456.733551 878.679199,455.023254 
	C879.365112,459.498871 880.326782,463.502411 880.320496,467.675964 
	C880.288330,488.979980 880.555298,510.287811 880.242126,531.587341 
	C879.667053,570.700378 876.970581,609.626160 865.317261,647.272217 
	C855.909180,677.664856 841.946838,705.966125 824.103821,732.345215 
	C806.534668,758.319458 786.138367,781.804504 761.385071,801.092834 
	C735.736694,821.078796 707.366577,836.253296 676.398438,846.563354 
	C654.532776,853.842957 632.237366,858.813416 609.267944,860.347473 
	C585.850769,861.911438 562.331726,863.375488 538.923828,862.099670 
	C512.394531,860.653931 485.947327,863.592651 459.497467,862.144653 
	C443.039124,861.243652 426.522797,862.131104 410.113464,860.273010 
	C380.198822,856.885498 351.611053,848.946228 323.888580,837.031921 
	C288.088898,821.646301 257.532776,799.037598 230.623413,771.388733 
	C211.612427,751.855408 196.725677,729.153564 183.373474,705.389893 
	C167.692322,677.481262 156.129486,648.075867 149.304367,616.809631 
	C145.761734,600.580505 143.161133,584.211182 142.702698,567.574524 
	C142.630783,564.964478 140.894287,562.462097 142.365585,559.281799 
	C148.096252,561.360840 151.321960,566.585815 156.004822,569.806824 
	C158.861481,571.771729 161.065018,574.700500 163.952866,576.602844 
	C170.521637,580.930054 170.184113,587.857178 171.178665,594.309265 
	C178.416351,641.262878 197.120560,683.496521 224.199478,722.181213 
	C239.437149,743.949585 256.776428,763.908081 277.487976,780.738098 
	C278.841675,781.838074 279.926208,783.485901 282.102081,783.638000 
	C284.116028,770.088318 291.391296,758.486755 295.624451,745.781250 
	C299.628235,733.764160 304.943268,722.289490 310.591248,710.970947 
	C311.724518,708.699829 311.413696,707.083496 309.437378,705.321960 
	C303.098938,699.672119 296.840027,693.924866 290.742554,688.016968 
	C288.212128,685.565186 286.477722,685.603394 284.277893,688.342224 
	C280.912201,692.532654 276.680817,695.787231 272.045532,698.492981 
	C266.332672,701.827637 260.521362,702.977173 254.771896,698.679993 
	C249.644043,694.847473 247.512863,686.945557 249.161636,680.121582 
	C250.763977,673.489746 255.323166,668.699341 259.358337,663.739868 
	C262.115692,660.350891 261.522614,658.529114 258.863556,655.856628 
	C241.354141,638.259277 224.483978,620.036133 206.554779,602.844482 
	C196.462585,593.167419 186.735733,583.106201 176.939728,573.124451 
	C170.043213,566.097168 162.440918,559.864136 155.047897,553.400452 
	C152.635986,551.291748 150.496033,549.000061 148.581070,546.501343 
	C143.246994,539.541138 143.207489,533.807007 149.045593,527.266724 
	C156.587906,518.817383 164.554138,510.736420 173.240112,503.443726 
	C179.412964,498.261047 185.200165,498.383087 191.080215,503.991943 
	C196.012711,508.696930 200.373367,513.994934 205.148468,518.872437 
	C226.237823,540.413757 247.598236,561.694824 268.419159,583.491699 
	C278.315338,593.851807 288.320709,604.070251 298.749573,613.879639 
	C303.793274,618.623718 303.847198,618.546814 308.769043,614.058533 
	C311.735382,611.353394 314.989441,609.063599 318.601807,607.280212 
	C325.271637,603.987488 331.350922,605.859924 336.811249,609.870789 
	C342.324402,613.920471 341.975006,619.908936 340.770752,625.812683 
	C339.820923,630.469055 337.410156,634.530579 334.536194,638.194214 
	C332.574158,640.695312 332.817535,642.324646 334.865753,644.593994 
	C343.008881,653.616333 344.028015,653.462158 351.432678,643.922241 
	C357.215607,636.471802 362.645813,628.700623 369.526764,622.583252 
	C369.099579,620.008057 367.283417,619.648743 365.873993,618.898254 
	C334.240509,602.052673 306.650787,580.356628 283.340393,552.901550 
	C257.455750,522.414551 241.066925,487.429504 231.265625,449.085541 
	C226.301834,429.666504 224.643036,409.744690 225.871582,389.779327 
	C226.490433,379.722626 226.113953,369.509491 228.510773,359.579254 
	C228.740631,358.626984 228.780472,357.562225 228.627518,356.594116 
	C226.450409,342.814301 231.126007,330.083984 234.593506,317.164764 
	C243.121521,285.390991 257.645630,256.588013 277.907837,230.732666 
	C301.042511,201.211945 329.296631,177.874161 362.778717,160.790115 
	C388.819336,147.503006 415.673981,136.541367 444.287445,130.202545 
	C469.018127,124.723900 493.987915,121.054893 519.378967,122.735733 
	C555.998291,125.159836 591.690857,132.035263 626.055359,145.444595 
	C653.687500,156.226929 679.892273,169.445847 702.806396,188.446091 
	C722.141479,204.478607 738.548828,223.253540 752.574158,244.099823 
	C754.886841,247.537277 757.283020,250.918625 759.491211,254.110092 
	C761.742188,254.515686 762.934692,253.055557 764.435974,252.455276 
	C769.755249,250.328323 775.184021,248.479950 780.859070,250.599457 
	C785.775696,252.435745 788.635437,250.523392 790.956543,246.392990 
	C797.032715,235.580902 805.278137,226.380508 813.011841,216.784637 
	C822.543274,204.958221 833.982544,194.899521 843.642090,183.205582 
	C846.398132,179.869049 849.195312,176.562759 852.074524,173.332520 
	C857.089355,167.706329 861.206421,167.349472 866.363464,172.832291 
	C878.846252,186.103683 887.060669,201.662216 890.312683,219.704300 
	C890.606323,221.333481 890.842163,222.983353 891.284180,224.573807 
	C893.812988,233.673904 889.846252,240.069962 883.260071,245.950424 
	C865.149536,262.120575 845.286072,275.109863 821.628906,281.634491 
	C820.834534,281.853607 820.079956,282.249939 819.345947,282.637604 
	C819.083313,282.776337 818.936340,283.134094 818.739502,283.394165 
	C820.721436,296.854126 819.413818,295.520294 832.497253,295.616974 
	C848.328735,295.733948 864.161743,295.675262 879.994019,295.644196 
	C898.147339,295.608582 915.550110,291.626373 932.579590,285.627869 
	C935.901062,284.457886 939.582947,281.806915 942.807678,285.063934 
	C945.963257,288.251129 944.717102,292.593140 943.016663,295.863800 
	C934.505432,312.234619 927.714905,329.402100 919.009216,345.734161 
	C913.351746,356.347717 906.817017,357.693451 896.513855,356.431244 
	C876.915283,354.030273 857.919922,349.980835 839.947205,341.514130 
	C832.321533,337.921814 825.698853,332.978516 819.042542,327.987671 
	C817.622253,326.922760 816.374817,325.405762 813.934021,325.729462 
	C813.104248,329.420624 815.503784,331.745087 817.446777,334.299103 
	C824.591736,343.691193 833.783997,350.781525 843.114014,357.825470 
	C859.177734,369.953156 873.801636,383.894531 890.447998,395.328003 
	C896.949829,399.793793 903.829285,403.399353 910.869568,406.814270 
	C912.816895,407.758850 914.817932,408.647888 916.617004,409.831848 
	C921.019104,412.728882 921.082031,414.624268 917.615234,418.507904 
	C913.872314,422.700958 909.159485,425.498718 904.376282,428.191498 
	C884.650513,439.296600 864.349854,448.475494 840.969482,448.235809 
	C833.518982,448.159424 828.826965,445.328247 824.934509,438.780945 
	C810.702942,414.842499 800.416565,389.291016 792.272034,362.783722 
	C791.296143,359.607483 790.581543,356.350281 789.770386,353.124451 
	C789.377563,351.562469 789.379395,349.779419 786.515991,348.887665 
	C786.922729,354.057068 787.197937,358.884338 787.701904,363.687592 
	C788.812317,374.270874 790.414124,384.817108 791.118591,395.424713 
	C791.937927,407.762634 789.933350,419.980804 788.261597,432.182007 
	C785.196289,454.554321 779.821106,476.282928 770.189331,496.808685 
	C748.096252,543.890198 715.246094,581.535461 671.166199,609.236206 
	C664.424744,613.472595 657.395569,617.262878 649.348511,620.675415 
	C655.504822,627.076538 661.321533,632.941956 666.932800,638.997742 
	C677.940186,650.877197 686.477356,664.128174 690.441956,680.134216 
	C694.933716,698.268311 683.315369,719.147339 666.620911,727.384460 
	C645.659607,737.726807 624.228333,739.297913 601.530884,734.314209 
	C579.758301,729.533569 559.341248,721.159912 538.729980,713.195801 
	C532.314514,710.716858 530.241333,704.983582 532.023804,696.851135 
	C532.948181,692.633484 533.865112,688.407166 535.013489,684.247742 
	C536.045349,680.510376 534.325195,678.529358 531.116638,677.365356 
	C529.719971,676.858704 528.247192,676.502808 526.778809,676.261658 
	C514.806519,674.295837 505.112701,668.064087 496.549896,659.889954 
	C494.271820,657.715332 491.813049,656.282166 488.845093,655.592102 
	C476.016785,652.609192 466.267792,645.257385 459.099091,634.400330 
	C457.033783,631.272400 454.475342,629.835510 450.792816,628.844482 
	C432.176666,623.834167 419.163116,612.689026 415.180573,593.161255 
	C411.540283,575.311646 426.494019,557.345947 444.672455,557.795166 
	C451.380127,557.960938 456.329620,556.849426 461.098816,551.455872 
	C466.424377,545.433044 474.303406,542.588440 482.039764,540.325989 
	C485.750458,539.240845 486.890533,537.693420 486.115723,533.518555 
	C483.532349,519.597656 481.518250,505.491058 484.804504,491.435150 
	C487.419556,480.250031 493.156830,470.893433 502.936707,464.224365 
	C509.270630,459.905182 516.152771,458.779877 523.423340,459.889526 
	C532.836670,461.326233 539.042542,468.498016 538.211182,478.110291 
	C535.692322,507.235962 544.429321,533.165649 559.353943,557.606018 
	C566.033508,568.544434 572.479370,579.639526 578.186584,591.133728 
	C579.344238,593.465332 580.809265,595.600647 583.290710,596.358582 
	C597.540344,600.710876 610.446716,608.203430 624.212036,613.673584 
	C626.018677,614.391418 627.828918,615.523010 629.888672,614.423523 
	C630.732117,612.744385 629.443604,611.875549 628.549194,611.029297 
	C622.126465,604.952148 615.487854,599.254639 607.380798,595.325806 
	C601.408569,592.431519 595.853394,588.665588 590.161682,585.206909 
	C585.055786,582.104248 582.608887,576.823792 579.907715,571.896973 
	C573.105469,559.489746 566.564148,546.939575 559.769775,534.103699 
M654.742432,250.251831 
	C656.607910,240.673523 656.011536,231.012711 655.669678,221.366180 
	C655.065796,204.323578 646.179260,192.440979 629.894287,187.273834 
	C620.049683,184.150192 609.884888,182.375885 599.694702,180.719070 
	C580.483826,177.595596 561.277710,173.911240 541.811890,173.522598 
	C507.392487,172.835388 472.906006,171.026505 438.675934,177.227707 
	C423.291016,180.014877 407.693604,181.730255 392.732452,186.490097 
	C379.497009,190.700897 370.703308,199.421280 367.917786,213.287827 
	C365.507080,225.288635 365.094910,237.397018 368.145142,249.384857 
	C370.916107,260.275116 375.468750,269.838623 387.499023,273.320557 
	C388.261505,273.541260 389.115356,274.032410 389.562225,274.658051 
	C391.715607,277.672882 394.846252,277.682373 398.066498,277.790039 
	C405.619965,278.042511 412.849487,275.811798 420.259674,275.062225 
	C432.343994,273.839935 444.441345,272.860962 456.600464,272.378418 
	C484.041656,271.289551 511.446106,269.512177 538.933533,271.488434 
	C549.371765,272.238892 559.933594,271.414642 570.345337,272.350372 
	C581.270203,273.332275 592.397949,271.386902 603.122681,274.471527 
	C610.585144,276.617889 618.152527,277.039337 625.816528,276.835144 
	C627.262817,276.796661 629.436890,277.331390 629.865540,275.721100 
	C630.931335,271.717010 634.360474,271.580963 637.227905,270.727844 
	C647.160400,267.772644 653.099243,261.413055 654.742432,250.251831 
M505.520813,607.794495 
	C510.259216,606.222168 514.957092,604.510010 519.748596,603.120544 
	C523.781433,601.950989 525.421936,603.368408 525.303467,607.523132 
	C525.193848,611.368164 522.979248,613.985657 520.101379,616.178589 
	C511.859558,622.458679 511.856934,622.455688 517.905273,630.853394 
	C518.197327,631.258850 518.476562,631.676147 518.797302,632.058105 
	C521.795837,635.629089 521.200256,638.971252 518.382507,642.379517 
	C516.154602,645.074341 513.530334,647.322937 510.926544,649.348389 
	C511.095673,651.549805 512.499329,652.583679 513.788757,653.575623 
	C521.792114,659.733093 530.772644,663.441772 540.948059,663.598816 
	C553.206360,663.788025 557.770203,660.560486 561.233643,648.774963 
	C563.950928,639.528625 566.328003,630.162292 568.360291,620.742310 
	C569.488464,615.513184 569.174927,610.136963 566.575806,605.147278 
	C559.649475,591.850586 552.644409,578.604431 544.256592,566.141479 
	C534.380371,551.466919 527.658691,535.376282 523.740845,518.196411 
	C521.146362,506.819519 519.902222,495.255127 521.529602,483.520081 
	C522.359619,477.534454 519.727356,475.588654 513.941162,477.453735 
	C512.152832,478.030151 510.670959,479.094788 509.429657,480.480621 
	C506.499542,483.751923 504.322754,487.420044 503.276886,491.747253 
	C499.820526,506.047974 501.437958,520.146179 504.792786,534.201660 
	C505.383820,536.677734 506.627319,537.722656 509.288635,537.772217 
	C513.439575,537.849609 517.632812,538.278503 521.422546,540.206238 
	C525.292358,542.174683 526.090698,545.833557 525.460205,549.596680 
	C524.818176,553.429077 521.327515,552.239380 518.890320,552.265808 
	C510.704926,552.354370 502.627808,553.492554 494.555450,554.592407 
	C481.668732,556.348206 471.183685,562.114441 464.463623,573.648560 
	C460.970337,579.644165 459.202026,585.993652 460.892822,593.293091 
	C463.692963,592.318176 465.041718,590.388855 466.450562,588.580872 
	C469.681885,584.434204 473.617126,581.066101 478.307159,578.799011 
	C489.360840,573.455994 501.365753,571.300842 513.304199,569.138489 
	C516.369080,568.583374 520.177734,569.439148 521.176025,573.012756 
	C522.291504,577.005920 518.699890,578.500244 515.785461,579.606384 
	C508.631348,582.321838 501.388672,584.810486 494.142273,587.274719 
	C484.160431,590.669189 476.495575,596.538452 472.916840,606.827515 
	C467.196838,623.272705 478.806885,640.696838 494.750061,639.644653 
	C503.211914,639.086304 504.610138,636.615601 500.405823,629.650696 
	C495.137146,620.922546 497.016815,611.652039 505.520813,607.794495 
M645.227966,784.135376 
	C603.074158,783.871643 560.920532,783.449890 518.766479,783.406860 
	C495.609467,783.383240 472.450653,783.396912 449.288971,783.703125 
	C424.152527,784.035461 398.988190,785.474792 373.854218,783.472229 
	C370.648468,783.216919 369.307770,784.424133 369.231293,787.668152 
	C369.090088,793.659729 368.635010,799.643250 368.406860,805.633728 
	C368.167358,811.921814 369.088287,812.548462 375.345215,813.057434 
	C392.512421,814.454041 409.638977,812.725525 426.782837,812.717651 
	C476.776154,812.694702 526.769531,812.836426 576.762878,812.875977 
	C581.423706,812.879700 586.088928,812.697815 590.745056,812.462952 
	C605.220703,811.732788 619.723083,811.667480 634.125610,813.030151 
	C639.361389,813.525513 644.383057,812.881042 649.501282,812.920898 
	C651.990051,812.940247 652.544739,811.675537 652.522949,809.447998 
	C652.463074,803.301453 652.483337,797.150757 652.647583,791.006348 
	C652.817200,784.663208 652.536926,784.272583 645.227966,784.135376 
M338.967834,716.569092 
	C353.272369,685.809326 372.726654,658.396362 394.513702,632.446655 
	C390.499969,628.986755 386.958649,628.684937 383.042633,631.165649 
	C380.206909,632.961975 377.578827,634.955200 375.328552,637.444824 
	C361.786530,652.427002 349.393494,668.334595 339.802002,686.109314 
	C323.036652,717.178528 308.657867,749.357666 297.203705,782.792175 
	C296.456451,784.973328 296.177185,787.317993 295.719910,789.594604 
	C294.884521,793.753723 297.356720,795.856506 300.746552,797.026184 
	C304.217163,798.223755 304.439453,794.859436 305.289459,793.033386 
	C307.954620,787.307922 310.377319,781.465576 312.766724,775.616638 
	C320.820160,755.902832 328.960876,736.229736 338.967834,716.569092 
M293.990631,539.531128 
	C304.969971,552.853638 316.894348,565.131348 332.153381,573.998108 
	C270.066498,512.247681 239.501999,438.794800 247.543152,350.736664 
	C236.021225,419.993408 247.221588,483.736328 293.990631,539.531128 
M277.642059,304.080017 
	C286.729340,299.549255 295.846680,295.077240 304.886322,290.453339 
	C307.745911,288.990631 310.719360,287.453003 312.188263,283.642517 
	C309.082092,283.116211 306.501709,283.208252 303.911163,283.908997 
	C295.720306,286.124512 287.556732,288.451782 279.320770,290.485382 
	C274.620819,291.645874 270.005615,293.607025 264.431946,293.273376 
	C278.029755,265.757507 297.512054,242.596588 311.876495,216.287292 
	C310.168823,217.042389 308.855408,218.049942 307.694366,219.209991 
	C290.468262,236.421249 275.829376,255.592667 266.206757,278.029297 
	C261.294373,289.483337 256.911713,301.114685 250.343475,311.768616 
	C249.652252,312.889832 249.225006,314.187286 248.771957,315.438019 
	C248.315735,316.697540 247.985916,318.000366 249.567703,319.899445 
	C258.611694,314.796021 267.799408,309.611511 277.642059,304.080017 
M333.299194,665.919922 
	C334.164856,664.096252 336.360962,662.351562 333.784149,660.275208 
	C331.196838,658.190430 328.599945,656.109558 325.903198,654.171753 
	C324.318542,653.032959 322.413666,652.620605 320.866150,654.181335 
	C315.134460,659.961914 309.454407,665.794922 303.831085,671.680908 
	C302.113434,673.478760 301.810394,675.604187 303.877777,677.372009 
	C308.005737,680.901855 312.144897,684.440491 317.163910,687.411194 
	C321.822906,679.661316 327.445557,673.134155 333.299194,665.919922 
M588.688843,622.488220 
	C588.688843,619.463318 588.688843,616.438416 588.688843,613.413574 
	C588.200562,613.341125 587.712219,613.268738 587.223938,613.196289 
	C583.114685,645.320557 569.719971,673.642944 551.903748,700.266418 
	C558.094788,699.057190 562.295654,695.542236 565.997192,691.131409 
	C572.666016,683.184753 576.612976,673.869995 579.766296,664.171509 
	C584.081970,650.897766 588.627563,637.655273 588.688843,622.488220 
M290.342651,661.849060 
	C301.129456,651.210571 311.090424,639.757935 322.269318,629.501282 
	C323.710175,628.179260 324.788452,626.428711 325.882355,624.775879 
	C326.433411,623.943298 326.591766,622.870667 325.720032,622.020752 
	C324.891388,621.212830 323.831238,621.241516 322.933533,621.697205 
	C321.759552,622.293152 320.602295,623.016846 319.628479,623.896484 
	C314.438782,628.584290 309.124664,633.154724 304.193848,638.104736 
	C291.620453,650.727173 279.180267,663.483887 266.817566,676.312866 
	C265.149048,678.044434 262.866486,679.863831 263.329956,683.163513 
	C267.368927,683.136719 269.632690,680.599182 272.060974,678.414673 
	C277.999115,673.072571 283.908630,667.698669 290.342651,661.849060 
M184.347641,536.842896 
	C186.554626,534.590576 188.794052,532.368896 190.961090,530.078796 
	C194.377563,526.468384 191.492554,524.242554 189.185776,521.759705 
	C186.733551,519.120239 184.506729,519.093323 182.062607,521.705750 
	C177.297440,526.798828 172.430618,531.797363 167.697250,536.919434 
	C165.509003,539.287415 164.084717,541.850342 167.345703,544.587219 
	C170.155457,546.945374 172.937454,548.226318 176.048294,545.043396 
	C178.601288,542.431274 181.235062,539.898132 184.347641,536.842896 
M434.830719,597.536377 
	C438.237335,602.745483 441.698944,607.893127 448.137939,610.162598 
	C449.198944,607.327576 447.835754,605.382019 447.366913,603.375183 
	C445.586029,595.751770 444.260406,588.139099 445.801941,580.293396 
	C446.105408,578.749023 447.123047,576.871765 445.390747,575.682495 
	C443.556000,574.422852 441.593933,575.201294 439.743774,576.109436 
	C431.755402,580.030273 430.010895,586.855164 434.830719,597.536377 
M250.549286,600.812866 
	C250.731781,596.902161 250.914291,592.991394 251.099609,589.020142 
	C246.864319,588.798706 243.096512,588.628479 239.332565,588.395508 
	C236.823654,588.240234 234.647247,589.227905 234.709473,591.734680 
	C234.805222,595.592468 231.788116,599.532288 234.479645,603.171143 
	C235.799774,604.955933 248.309586,603.402039 250.549286,600.812866 
M200.980453,549.163269 
	C199.099258,549.108276 197.623016,549.754272 197.464798,551.812195 
	C197.176712,555.559509 195.696259,559.171875 196.108719,563.229675 
	C200.596115,564.062683 205.039261,563.612793 209.459488,563.550842 
	C210.919739,563.530457 212.210388,562.637512 212.312408,561.232605 
	C212.615387,557.059631 214.377594,552.981812 213.417450,548.338379 
	C209.460190,549.682495 205.657288,549.312012 200.980453,549.163269 
M270.901978,612.524597 
	C270.825867,612.040527 270.860321,611.187317 270.657410,611.126526 
	C265.837738,609.682922 260.920990,610.219421 256.033783,610.629211 
	C254.987366,610.716980 254.508987,611.846924 254.444626,612.896912 
	C254.217834,616.596008 254.036072,620.297913 253.836731,624.008240 
	C256.390472,624.008240 258.535767,623.888977 260.664093,624.028687 
	C270.268860,624.659119 270.266357,624.685486 270.713837,614.775085 
	C270.736176,614.279846 270.793701,613.786255 270.901978,612.524597 
M222.328049,569.354248 
	C217.044830,568.402161 214.468369,570.256897 215.220413,575.938660 
	C215.385696,577.187378 214.763306,578.534424 214.539490,579.842346 
	C214.357864,580.903870 214.535248,582.145325 215.646896,582.297546 
	C220.087097,582.905579 224.566757,583.266541 229.035721,582.614380 
	C230.133026,582.454285 230.639847,581.383423 230.602615,580.330994 
	C230.481689,576.910706 231.715302,573.490723 230.797989,569.845886 
	C228.141342,569.676453 225.663361,569.518433 222.328049,569.354248 
M375.409729,726.003357 
	C372.238770,737.046997 370.511932,748.395203 368.587250,759.684753 
	C368.001526,763.120361 366.980438,767.064819 370.750153,771.687500 
	C374.700134,753.492737 376.509979,736.321289 378.310822,719.059814 
	C377.426910,721.128601 376.542969,723.197449 375.409729,726.003357 
M276.912537,638.009766 
	C277.795013,637.270630 278.772614,636.617126 279.535461,635.770203 
	C280.445679,634.759644 281.101166,633.520691 280.265350,632.154785 
	C279.664062,631.172180 278.589386,631.162903 277.590363,631.349426 
	C276.065430,631.634094 275.352570,632.746643 275.228455,634.171326 
	C275.106262,635.574158 274.456268,637.193665 276.912537,638.009766 
z"/>
<path fill="#000000" opacity="1.000000" stroke="none" 
	d="
M187.338684,315.263062 
	C178.050964,337.722931 172.332947,360.789917 169.617783,384.451324 
	C167.648087,401.616547 167.180038,418.962158 167.320908,436.287170 
	C167.449631,452.119171 167.274048,467.953552 167.389984,483.785736 
	C167.424957,488.560974 166.471497,491.926514 161.132538,493.559937 
	C155.683395,495.227081 152.752502,500.434540 149.031342,504.432159 
	C147.053665,506.556671 145.661728,509.274292 142.650421,511.232147 
	C142.650421,507.674866 142.679932,504.809143 142.645538,501.944244 
	C142.445526,485.285461 141.953323,468.624634 142.088882,451.968781 
	C142.268921,429.850494 142.333649,407.725800 144.566360,385.663147 
	C148.336243,348.410583 157.957672,312.788666 174.828400,279.380615 
	C191.802536,245.767761 212.394653,214.574707 239.708771,188.229691 
	C278.676727,150.644333 324.699249,126.269859 377.557678,114.921951 
	C401.898285,109.696388 426.640808,108.773788 451.463715,109.645905 
	C452.578156,109.685059 453.823120,109.330284 455.154541,110.819923 
	C451.416992,111.696594 447.977356,112.563103 444.511292,113.306557 
	C424.314362,117.638756 404.013947,122.436432 385.812256,132.101913 
	C365.014160,143.146194 342.981049,151.256897 321.977020,161.721466 
	C291.248352,177.030975 265.160004,198.040070 242.757370,223.887634 
	C219.166809,251.105743 202.419785,282.452759 187.338684,315.263062 
z"/>
<path fill="#000000" opacity="1.000000" stroke="none" 
	d="
M372.008087,346.865601 
	C392.936066,337.077087 417.332886,343.918091 430.829803,363.549805 
	C454.350281,397.761017 434.068359,430.700562 406.740173,440.027252 
	C375.633759,450.643341 341.780182,423.412659 344.368652,390.615387 
	C344.817719,384.925262 345.928040,379.372986 347.445923,374.048065 
	C351.076508,361.311401 360.543427,353.311127 372.008087,346.865601 
M381.510345,367.020447 
	C380.824707,367.957886 380.046478,368.841766 379.468658,369.841522 
	C376.054474,375.748718 376.618011,382.008514 380.952332,386.934021 
	C384.853180,391.366943 392.008728,393.054871 397.947296,390.943054 
	C404.309723,388.680511 407.902588,383.537659 407.879944,376.916351 
	C407.858093,370.519928 404.624298,366.106628 399.093445,363.559784 
	C392.904022,360.709717 387.095490,361.888275 381.510345,367.020447 
z"/>
<path fill="#000000" opacity="1.000000" stroke="none" 
	d="
M674.150024,415.994324 
	C663.825195,432.825073 649.618164,442.563965 629.711060,442.272461 
	C605.386658,441.916321 584.055664,420.129608 583.623901,395.776215 
	C583.225342,373.292542 592.307129,356.305420 612.743591,346.491882 
	C631.218689,337.620178 657.385376,345.577148 668.676514,362.681488 
	C669.517151,363.954926 670.122070,365.247620 670.344910,366.789062 
	C671.045715,371.635468 672.653381,376.374237 675.359192,380.271027 
	C681.936584,389.743256 680.829407,399.378448 677.209290,409.300171 
	C676.413025,411.482452 675.291199,413.545990 674.150024,415.994324 
M628.882935,391.623718 
	C639.330505,391.596832 646.427307,384.826324 645.675476,375.603302 
	C644.974548,367.004608 636.276672,360.670532 627.331238,362.244446 
	C620.854004,363.384094 615.842896,369.111816 615.407043,375.873810 
	C614.937012,383.166656 619.792358,389.183563 628.882935,391.623718 
z"/>
<path fill="#000000" opacity="1.000000" stroke="none" 
	d="
M649.701660,139.359711 
	C622.087036,125.527458 593.108337,116.948418 563.159851,111.678757 
	C563.597534,109.655975 564.343079,109.678093 564.946716,109.677589 
	C581.063232,109.663986 597.264893,108.621910 613.277222,109.916466 
	C640.124878,112.087029 666.378296,117.666962 691.571411,127.722771 
	C720.677979,139.340668 747.847900,154.200989 771.579041,174.826401 
	C781.598999,183.535049 791.155090,192.784317 799.457825,203.234344 
	C801.545837,205.862396 801.455566,207.475800 798.679810,209.755539 
	C794.303894,213.349533 791.156555,218.172333 787.724976,222.670990 
	C787.026062,223.587341 786.472839,224.641907 784.111145,226.010361 
	C780.356323,221.846054 776.708740,217.578918 772.829590,213.533783 
	C743.305115,182.745728 707.781616,161.558014 667.555481,147.930893 
	C661.373291,145.836594 655.697327,142.695175 649.701660,139.359711 
z"/>
<path fill="#000000" opacity="1.000000" stroke="none" 
	d="
M507.278809,933.265503 
	C513.897278,928.819763 521.071533,926.404175 528.285767,924.602112 
	C538.467224,922.058777 548.278259,918.209229 558.456116,915.929810 
	C569.059509,913.555237 579.863098,913.286804 589.677612,919.841858 
	C595.992737,924.059753 597.255981,932.659546 592.331848,938.295471 
	C587.843628,943.432312 583.166138,946.190918 575.648315,946.704224 
	C557.201050,947.963928 538.810486,946.999939 520.403320,947.158813 
	C516.363098,947.193787 512.377441,948.961487 508.154633,946.874878 
	C502.378357,944.020874 501.366821,941.683044 504.822693,936.216614 
	C505.438568,935.242432 506.265472,934.401611 507.278809,933.265503 
z"/>
<path fill="#000000" opacity="1.000000" stroke="none" 
	d="
M713.975342,931.259521 
	C705.437744,933.730713 697.161743,935.310120 688.679932,936.062683 
	C684.602844,936.424316 680.625000,937.854675 676.588684,938.739441 
	C673.323669,939.455139 670.412659,938.869080 667.739746,936.638977 
	C663.657776,933.233154 659.406006,930.030518 655.215576,926.755310 
	C652.600952,924.711670 651.920288,922.370300 653.746338,919.383423 
	C655.537537,916.453552 656.362610,913.758728 654.216614,910.175659 
	C652.003906,906.481079 655.878784,906.003479 658.123840,906.104553 
	C663.729431,906.356934 669.357849,906.868835 674.892151,907.788025 
	C688.915771,910.117310 703.182312,911.205444 716.797424,915.701538 
	C717.426208,915.909119 718.160828,916.017883 718.640076,916.418884 
	C720.862244,918.278625 725.545959,917.781372 725.138367,922.043457 
	C724.782654,925.762695 721.732971,927.872314 718.480103,929.390015 
	C717.126282,930.021667 715.736450,930.576294 713.975342,931.259521 
z"/>
<path fill="#000000" opacity="1.000000" stroke="none" 
	d="
M426.998413,317.955811 
	C434.737701,321.916382 442.161133,325.680695 449.556458,329.499390 
	C455.781158,332.713593 457.611084,336.556915 455.538666,341.859192 
	C453.479004,347.128845 448.672333,349.332886 442.389496,347.892578 
	C438.796112,347.068756 435.474823,345.571808 432.187836,343.935547 
	C421.320679,338.525818 410.838531,332.368195 399.434784,327.997559 
	C392.637543,325.392395 390.658051,321.891632 391.661560,316.974670 
	C393.175842,309.555145 398.440918,306.201477 405.676575,308.526123 
	C412.974365,310.870697 419.889221,314.204041 426.998413,317.955811 
z"/>
<path fill="#000000" opacity="1.000000" stroke="none" 
	d="
M573.645630,332.699768 
	C577.394287,329.793335 581.243713,327.754547 585.294067,326.259766 
	C596.552490,322.104797 606.931641,316.003937 618.091980,311.661133 
	C621.528198,310.324005 625.110046,309.525269 628.807617,310.823486 
	C635.735718,313.255951 637.284302,319.820526 631.941467,324.741547 
	C630.006409,326.523865 627.782104,328.117401 625.442871,329.314575 
	C613.151306,335.605194 600.799561,341.779572 588.425232,347.906403 
	C584.972351,349.615997 581.439331,350.807678 577.398071,349.463715 
	C569.105164,346.705841 567.186523,339.153625 573.645630,332.699768 
z"/>
<path fill="#000000" opacity="1.000000" stroke="none" 
	d="
M365.198792,916.094116 
	C373.028778,914.442932 379.793060,915.318237 385.471893,920.926208 
	C388.053009,923.474976 388.506958,926.392456 387.447784,929.620239 
	C386.337799,933.003052 383.548187,934.019165 380.332581,933.912598 
	C372.705658,933.659973 365.603485,935.517639 358.521179,938.257935 
	C354.240814,939.914124 349.666992,939.529602 346.347046,935.417542 
	C344.602936,933.257385 341.857574,932.633423 339.685120,931.117126 
	C335.191650,927.980774 335.273773,924.442383 340.019165,921.531494 
	C342.806763,919.821594 346.014709,919.537292 349.122437,919.149780 
	C354.414856,918.490112 359.640411,917.575989 365.198792,916.094116 
z"/>
<path fill="#000000" opacity="1.000000" stroke="none" 
	d="
M658.993103,471.311218 
	C650.337219,474.178833 641.880188,473.695038 633.444275,472.666382 
	C630.291504,472.281952 627.372070,470.866608 624.982178,468.672546 
	C621.336853,465.326019 621.734192,460.410522 625.857117,457.654968 
	C629.125916,455.470337 632.903870,454.674835 636.699341,454.249481 
	C644.804626,453.341156 652.923401,452.754425 660.850281,455.555542 
	C664.563416,456.867645 668.603394,458.449402 668.813965,462.797760 
	C669.017578,467.003357 664.912903,468.557312 661.689758,470.274536 
	C660.960632,470.662994 660.153198,470.904510 658.993103,471.311218 
z"/>
<path fill="#000000" opacity="1.000000" stroke="none" 
	d="
M398.427917,468.545105 
	C387.106598,474.749268 375.573853,474.650909 363.902344,471.301086 
	C360.399200,470.295654 357.534821,467.770111 357.318359,463.924561 
	C357.086456,459.805145 360.406830,457.809296 363.733765,456.567444 
	C373.481537,452.928802 383.461853,452.528931 393.528809,455.173187 
	C394.794098,455.505524 396.010529,456.145081 397.150879,456.811249 
	C402.561523,459.971832 403.044983,463.667267 398.427917,468.545105 
z"/>
<path fill="#000000" opacity="1.000000" stroke="none" 
	d="
M369.998779,910.064148 
	C368.546967,909.990112 367.354736,910.322327 366.465271,909.344482 
	C368.939117,906.585388 369.347565,906.517029 373.659668,908.178650 
	C373.404572,910.305420 371.642975,909.780518 369.998779,910.064148 
z"/>
<path fill="#000000" opacity="1.000000" stroke="none" 
	d="
M642.257812,209.043671 
	C640.531921,216.767471 637.204346,219.928680 631.941956,219.251205 
	C626.984497,218.612976 622.635437,212.642105 622.721375,206.592224 
	C622.794189,201.466232 627.575989,197.693054 632.725830,198.955276 
	C637.803101,200.199677 641.275879,203.249664 642.257812,209.043671 
z"/>
<path fill="#000000" opacity="1.000000" stroke="none" 
	d="
M383.073120,203.447693 
	C385.315002,199.356735 388.430420,197.506058 392.699493,198.393433 
	C396.730377,199.231308 399.857910,201.646973 400.562897,205.756256 
	C401.325989,210.204132 399.968048,214.381607 396.186646,217.224213 
	C393.352631,219.354660 390.132019,219.009232 387.302948,217.211441 
	C383.717499,214.932968 381.867279,211.483917 382.042023,207.164642 
	C382.087677,206.035858 382.610626,204.926361 383.073120,203.447693 
z"/>
<path fill="#000000" opacity="1.000000" stroke="none" 
	d="
M387.587769,242.286896 
	C395.187958,239.245728 402.838196,244.295471 401.736206,251.301559 
	C401.082428,255.458099 399.382355,259.156677 394.621948,259.805145 
	C390.030212,260.430634 386.494385,258.316956 384.270203,254.360703 
	C381.946899,250.228226 383.020477,246.441299 387.587769,242.286896 
z"/>
<path fill="#000000" opacity="1.000000" stroke="none" 
	d="
M623.899536,254.717133 
	C622.062683,249.819794 622.293274,245.715469 626.856567,243.026093 
	C630.488525,240.885605 634.246338,240.989090 637.474487,243.922318 
	C640.274292,246.466370 642.387451,249.485657 641.213928,253.590515 
	C640.156677,257.288574 637.595703,259.531830 633.837402,260.198364 
	C629.331970,260.997375 626.083740,259.142212 623.899536,254.717133 
z"/>
</svg>